<svg width="29.383301" height="29.383316" viewBox="0 0 29.3833 29.3833" fill="none" xmlns="http://www.w3.org/2000/svg" xmlns:xlink="http://www.w3.org/1999/xlink">
	<desc>
			Created with Pixso.
	</desc>
	<defs/>
	<rect id="iconfinder_shopping-cart_2561279 1" rx="0.000000" width="28.000000" height="28.000000" transform="translate(0.691772 0.691650)" fill="#FFFFFF" fill-opacity="0"/>
	<path id="Vector" d="M9.85 27.98C8.52 27.98 7.44 26.9 7.44 25.56C7.44 24.23 8.52 23.15 9.85 23.15C11.19 23.15 12.27 24.23 12.27 25.56C12.27 26.9 11.19 27.98 9.85 27.98Z" stroke="#3F3F3F" stroke-opacity="1.000000" stroke-width="2.800000" stroke-linejoin="round"/>
	<path id="Vector" d="M24.35 27.98C23.02 27.98 21.94 26.9 21.94 25.56C21.94 24.23 23.02 23.15 24.35 23.15C25.69 23.15 26.77 24.23 26.77 25.56C26.77 26.9 25.69 27.98 24.35 27.98Z" stroke="#3F3F3F" stroke-opacity="1.000000" stroke-width="2.800000" stroke-linejoin="round"/>
	<path id="Vector" d="M7.04 7.44L27.98 7.44L25.95 17.57C25.84 18.13 25.54 18.63 25.09 18.99C24.65 19.34 24.1 19.53 23.53 19.52L10.76 19.52C10.17 19.53 9.6 19.31 9.15 18.93C8.71 18.54 8.42 18 8.34 17.42L6.51 3.5C6.43 2.92 6.15 2.38 5.71 2C5.27 1.61 4.7 1.4 4.11 1.39L1.4 1.39" stroke="#3F3F3F" stroke-opacity="1.000000" stroke-width="2.800000" stroke-linejoin="round" stroke-linecap="round"/>
</svg>
